<svg width="64" height="64" viewBox="0 0 64 64" fill="none" xmlns="http://www.w3.org/2000/svg">
<path d="M54.6667 6.66667H9.33333L13.3333 52L32 57.3333L50.6667 52L54.6667 6.66667Z" fill="#0277BD"/>
<path d="M32 10.6667V53.2L46.9333 48.9333L50.2667 10.6667H32Z" fill="#039BE5"/>
<path d="M44.1333 17.3333H32V22.6667H38.5333L38.1333 28H32V33.3333H37.8667L37.4667 39.3333L32 41.2V46.8L42.5333 43.3333L43.4667 28L44.1333 17.3333Z" fill="white"/>
<path d="M32 17.3333V22.6667H20.1333L19.7333 17.3333H32ZM25.8667 28L26.1333 33.3333H32V28H25.8667ZM26.4 36H21.0667L21.4667 43.3333L32 46.8V41.2L26.5333 39.3333L26.4 36Z" fill="#EEEEEE"/>
</svg>
