<svg width="64" height="64" viewBox="0 0 64 64" fill="none" xmlns="http://www.w3.org/2000/svg">
<path d="M54.6667 6.66667H9.33334L13.3333 52L32 57.3333L50.6667 52L54.6667 6.66667Z" fill="#E65100"/>
<path d="M32 10.6667V53.2L46.9333 48.9333L50.2667 10.6667H32Z" fill="#FF6D00"/>
<path d="M32 33.3333V28H43.4667L42.5333 43.3333L32 46.8V41.2L37.4667 39.3333L37.8667 33.3333H32ZM43.8667 22.6667L44.2667 17.3333H32V22.6667H43.8667Z" fill="white"/>
<path d="M32 41.2V46.8L21.4667 43.3333L20.9333 36H26.2667L26.5333 39.3333L32 41.2ZM25.4667 22.6667H32V17.3333H19.8667L20.8 33.3333H32V28H25.8667L25.4667 22.6667Z" fill="#EEEEEE"/>
</svg>
