<svg width="21" height="20" viewBox="0 0 21 20" fill="none" xmlns="http://www.w3.org/2000/svg">
<path d="M2.40783 4.81567C3.73764 4.81567 4.81567 3.73764 4.81567 2.40783C4.81567 1.07802 3.73764 0 2.40783 0C1.07802 0 0 1.07802 0 2.40783C0 3.73764 1.07802 4.81567 2.40783 4.81567Z" fill="#DCF64B"/>
<path d="M7.08924 6.64026V19.9989H11.2369V13.3928C11.2369 11.6496 11.5649 9.96149 13.7262 9.96149C15.8578 9.96149 15.8842 11.9544 15.8842 13.5028V20H20.0341V12.6742C20.0341 9.07561 19.2594 6.31012 15.0534 6.31012C13.034 6.31012 11.6804 7.4183 11.1269 8.46705H11.0708V6.64026H7.08924ZM0.330139 6.64026H4.48442V19.9989H0.330139V6.64026Z" fill="#DCF64B"/>
</svg>
