<svg width="64" height="64" viewBox="0 0 64 64" fill="none" xmlns="http://www.w3.org/2000/svg">
<path d="M8 56V8H56V56H8Z" fill="#FFD600"/>
<path d="M39.384 43.9293C40.3067 45.428 41.3093 46.864 43.4333 46.864C45.2173 46.864 46.1533 45.9773 46.1533 44.7507C46.1533 43.2827 45.1853 42.7613 43.2227 41.9067L42.1467 41.448C39.0413 40.1307 36.976 38.48 36.976 34.9933C36.976 31.78 39.436 29.3347 43.28 29.3347C46.0173 29.3347 47.984 30.2827 49.4027 32.7653L46.0507 34.908C45.3133 33.5907 44.516 33.072 43.28 33.072C42.0187 33.072 41.22 33.868 41.22 34.908C41.22 36.1933 42.02 36.7133 43.8667 37.5093L44.9427 37.968C48.6027 39.5267 50.6667 41.1187 50.6667 44.6973C50.6667 48.5533 47.6213 50.6667 43.5333 50.6667C39.5347 50.6667 37.264 48.66 36 46.176L39.384 43.9293ZM23.936 44.0387C24.6107 45.2467 25.636 46.176 27.1107 46.176C28.5213 46.176 29.3333 45.6187 29.3333 43.452V29.3333H33.7773V44.1347C33.7773 48.624 31.1733 50.6667 27.3707 50.6667C23.9347 50.6667 21.4547 48.3387 20.444 46.176L23.936 44.0387Z" fill="#000001"/>
</svg>
